<?xml version="1.0" standalone="no"?>
<!DOCTYPE svg PUBLIC "-//W3C//DTD SVG 20010904//EN"
 "http://www.w3.org/TR/2001/REC-SVG-20010904/DTD/svg10.dtd">
<svg version="1.0" xmlns="http://www.w3.org/2000/svg"
 width="2370.000000pt" height="2370.000000pt" viewBox="0 0 2370.000000 2370.000000"
 preserveAspectRatio="xMidYMid meet">
<metadata>
Created by potrace 1.11, written by Peter Selinger 2001-2013
</metadata>
<g transform="translate(0.000000,2370.000000) scale(0.100000,-0.100000)"
fill="#000000" stroke="none">
<path d="M11305 22099 c-2327 -125 -4525 -1034 -6280 -2598 -193 -172 -575
-551 -760 -756 -1436 -1583 -2335 -3543 -2589 -5645 -35 -290 -54 -524 -67
-846 -7 -153 -16 -280 -21 -282 -11 -5 -11 -259 1 -264 4 -1 13 -124 20 -272
25 -595 88 -1110 202 -1671 40 -197 148 -636 168 -685 7 -18 10 24 10 162 3
677 131 1347 377 1971 74 188 271 587 376 762 438 730 1038 1348 1740 1793
797 506 1675 784 2626 831 96 5 175 11 177 13 2 1 57 84 123 183 732 1094
1842 1886 3107 2218 l130 34 7 95 c13 167 75 365 157 507 122 208 314 385 528
487 276 131 606 151 895 54 462 -155 780 -561 823 -1051 l6 -76 151 -38 c576
-143 1182 -414 1691 -756 418 -281 802 -628 1129 -1021 88 -105 240 -304 298
-391 14 -20 29 -35 35 -34 5 2 37 64 71 138 576 1255 615 2672 108 3963 -74
189 -251 547 -359 726 -390 648 -917 1201 -1540 1617 -725 483 -1543 765
-2424 833 -153 11 -691 11 -916 -1z"/>
<path d="M14520 21737 c0 -3 44 -31 98 -62 368 -219 693 -475 1028 -810 274
-274 471 -510 669 -805 861 -1281 1127 -2868 735 -4377 -88 -337 -206 -655
-369 -988 l-108 -221 34 -59 c267 -472 488 -1090 587 -1640 62 -341 86 -617
86 -981 0 -478 -47 -862 -164 -1327 l-52 -208 63 -49 c237 -187 397 -451 448
-744 19 -112 19 -308 0 -418 -75 -434 -394 -801 -812 -937 -142 -46 -214 -56
-388 -55 -175 0 -252 14 -415 73 l-84 31 -135 -138 c-717 -727 -1577 -1218
-2564 -1462 -283 -70 -721 -140 -878 -140 -81 0 -80 -4 49 -176 553 -738 1272
-1297 2121 -1650 857 -357 1825 -466 2762 -309 877 147 1694 526 2399 1113
153 128 490 466 620 622 274 329 492 681 781 1260 635 1271 985 2607 1060
4045 13 252 7 1022 -10 1235 -53 649 -136 1175 -277 1743 -265 1069 -704 2092
-1302 3032 -644 1012 -1488 1930 -2442 2657 -998 760 -2134 1337 -3315 1683
-104 31 -198 58 -207 61 -10 3 -18 3 -18 1z"/>
<path d="M13003 16682 c-119 -333 -327 -571 -627 -718 -603 -293 -1329 -34
-1615 577 -22 46 -43 96 -46 112 -4 15 -10 27 -14 27 -23 0 -320 -87 -446
-131 -900 -310 -1683 -862 -2284 -1609 -114 -142 -257 -338 -250 -344 2 -1 69
-8 147 -15 949 -82 1907 -449 2687 -1030 228 -170 374 -298 606 -530 303 -304
471 -508 690 -835 l107 -160 103 3 c124 3 373 25 519 47 1080 158 2059 652
2835 1428 192 192 322 341 465 531 91 121 243 343 268 391 10 19 1 37 -66 140
-276 422 -651 831 -1063 1160 -549 439 -1195 762 -1877 938 -121 31 -134 33
-139 18z"/>
<path d="M6940 14303 c-25 -2 -119 -13 -210 -24 -1943 -241 -3581 -1590 -4200
-3459 -106 -320 -186 -688 -225 -1041 -23 -196 -31 -693 -16 -901 46 -618 198
-1224 421 -1668 456 -911 1087 -1787 1830 -2544 525 -534 1049 -968 1655
-1370 1366 -907 2897 -1464 4520 -1645 630 -71 1382 -80 2025 -26 961 82 1965
317 2857 671 1259 498 2421 1246 3368 2168 l130 127 -85 -47 c-47 -25 -170
-88 -275 -139 -1347 -660 -2926 -721 -4326 -165 -294 117 -487 212 -779 387
-675 401 -1259 955 -1703 1614 -46 68 -88 132 -93 141 -8 15 -37 19 -204 28
-107 6 -256 17 -330 25 -1245 137 -2407 704 -3276 1601 l-131 136 -59 -25
c-382 -160 -814 -118 -1154 113 -87 59 -221 189 -289 280 -267 358 -311 851
-111 1251 93 187 246 362 408 469 l23 15 -40 155 c-263 1011 -229 2074 96
3060 67 203 173 466 263 649 44 89 80 165 80 167 0 4 -97 3 -170 -3z"/>
<path d="M7397 14039 c-306 -616 -468 -1210 -518 -1894 -15 -204 -6 -690 16
-884 34 -305 141 -831 169 -831 6 0 46 7 89 15 115 22 316 20 438 -5 464 -95
820 -430 938 -884 102 -390 -3 -806 -284 -1122 l-45 -51 163 -159 c864 -843
1937 -1335 3122 -1433 61 -5 111 -8 112 -7 2 2 -30 74 -71 162 -413 891 -577
1829 -490 2794 62 688 246 1324 574 1980 l57 115 -39 64 c-22 35 -41 73 -43
83 -2 10 -33 60 -68 111 -708 1012 -1760 1740 -2937 2031 -322 80 -649 130
-926 143 l-141 6 -116 -234z"/>
<path d="M16253 13967 c-380 -545 -854 -1008 -1420 -1387 -666 -446 -1408
-732 -2200 -849 -178 -27 -450 -51 -566 -51 l-87 0 -20 -32 c-11 -18 -58 -109
-104 -203 -276 -560 -443 -1168 -497 -1810 -14 -176 -14 -599 0 -770 59 -685
219 -1257 519 -1857 l113 -228 78 0 c43 0 136 5 207 10 1194 94 2267 584 3142
1435 l146 142 -58 64 c-306 337 -403 790 -260 1217 95 284 319 543 589 681 78
40 209 87 315 113 85 20 406 17 494 -5 56 -14 71 -15 77 -5 16 25 91 354 119
522 53 316 65 469 65 841 0 354 -7 463 -50 750 -61 411 -180 838 -338 1206
-62 147 -159 349 -166 349 -3 -1 -47 -60 -98 -133z"/>
</g>
</svg>
